<?xml version="1.0" encoding="UTF-8" standalone="no"?>
<!DOCTYPE svg PUBLIC "-//W3C//DTD SVG 1.1//EN" "http://www.w3.org/Graphics/SVG/1.1/DTD/svg11.dtd">
<svg width="100%" height="100%" viewBox="0 0 32 32" version="1.1" xmlns="http://www.w3.org/2000/svg" xmlns:xlink="http://www.w3.org/1999/xlink" xml:space="preserve" xmlns:serif="http://www.serif.com/" style="fill-rule:evenodd;clip-rule:evenodd;stroke-linejoin:round;stroke-miterlimit:2;">
    <path d="M32,16C32,7.169 24.831,0 16,0C7.169,0 0,7.169 0,16C0,24.831 7.169,32 16,32C24.831,32 32,24.831 32,16Z" style="fill:rgb(251,237,83);fill-opacity:0.1;"/>
    <path d="M16.063,25.991L15.914,25.991C15.866,26.003 15.815,26.003 15.766,25.991L7.858,21.773C7.752,21.718 7.662,21.632 7.6,21.527C7.538,21.421 7.504,21.3 7.504,21.176L7.504,10.828C7.499,10.776 7.499,10.724 7.504,10.672C7.519,10.604 7.546,10.539 7.584,10.481C7.627,10.422 7.681,10.373 7.744,10.338C7.776,10.3 7.815,10.267 7.858,10.242L7.915,10.242L15.732,6.072C15.82,6.025 15.918,6 16.017,6C16.116,6 16.214,6.025 16.302,6.072L24.211,10.206C24.253,10.231 24.292,10.264 24.325,10.302C24.365,10.34 24.4,10.384 24.427,10.433C24.462,10.492 24.485,10.557 24.496,10.625C24.501,10.676 24.501,10.728 24.496,10.78L24.496,21.128C24.496,21.252 24.462,21.374 24.4,21.479C24.337,21.585 24.248,21.67 24.142,21.725L16.36,25.908C16.31,25.917 16.26,25.917 16.211,25.908L16.063,25.991ZM16.702,15.368L16.702,24.235L23.343,20.757L23.343,11.963L16.702,15.368ZM8.794,20.757L15.424,24.235L15.424,15.368L8.794,11.963L8.794,20.757ZM9.581,10.768L16.063,14.209L22.579,10.768L16.063,7.422L9.581,10.768Z" style="fill:rgb(251,209,83);fill-rule:nonzero;"/>
</svg>
