<svg xmlns="http://www.w3.org/2000/svg" xml:space="preserve" style="fill-rule:evenodd;clip-rule:evenodd;stroke-linejoin:round;stroke-miterlimit:2" viewBox="0 0 32 32"><path d="M32 16c0-8.831-7.169-16-16-16S0 7.169 0 16s7.169 16 16 16 16-7.169 16-16" style="fill:#fbed53;fill-opacity:.1"/><path d="M16.063 25.991h-.149a.3.3 0 0 1-.148 0l-7.908-4.218a.65.65 0 0 1-.258-.246.7.7 0 0 1-.096-.351V10.828a1 1 0 0 1 0-.156.6.6 0 0 1 .08-.191.5.5 0 0 1 .16-.143.4.4 0 0 1 .114-.096h.057l7.817-4.17a.6.6 0 0 1 .57 0l7.909 4.134a.5.5 0 0 1 .114.096q.06.057.102.131a.6.6 0 0 1 .069.192 1 1 0 0 1 0 .155v10.348a.7.7 0 0 1-.096.351.65.65 0 0 1-.258.246l-7.782 4.183a.4.4 0 0 1-.149 0zm.639-10.623v8.867l6.641-3.478v-8.794zm-7.908 5.389 6.63 3.478v-8.867l-6.63-3.405zm.787-9.989 6.482 3.441 6.516-3.441-6.516-3.346z" style="fill:#fbd153;fill-rule:nonzero"/></svg>