<svg xmlns="http://www.w3.org/2000/svg" xml:space="preserve" style="fill-rule:evenodd;clip-rule:evenodd;stroke-linejoin:round;stroke-miterlimit:2" viewBox="0 0 32 32"><path d="M32 16c0-8.831-7.169-16-16-16S0 7.169 0 16s7.169 16 16 16 16-7.169 16-16" style="fill:#fbed53;fill-opacity:.1"/><path d="M23.91 8.76a7 7 0 0 0-1.55-.77 18.6 18.6 0 0 0-6.36-1 18.5 18.5 0 0 0-6.36 1 6.8 6.8 0 0 0-1.55.77A2.079 2.079 0 0 0 7 10.36v10.87c0 1.87 4 3.38 9 3.38s9-1.51 9-3.38V10.36a2.074 2.074 0 0 0-1.09-1.6m-.41 8.83c-.34.58-2.86 1.88-7.48 1.88s-7.16-1.27-7.45-1.85v-1.76a16.34 16.34 0 0 0 7.43 1.5 16.34 16.34 0 0 0 7.5-1.51zm0-3.61c-.34.58-2.86 1.87-7.48 1.87S8.86 14.58 8.57 14v-1.73a16.34 16.34 0 0 0 7.5 1.51 16.34 16.34 0 0 0 7.5-1.51zM9.15 9.85l.33-.16.3-.15.44-.18.4-.15.56-.15.48-.13.7-.14.54-.1.91-.1.54-.05q.74-.06 1.56-.06h.18q.83 0 1.56.06l.54.05.91.1.53.1.71.14.48.13.56.15.4.15.44.16.3.15.33.16.2.14.22.15.11.12q.055.056.1.12c-.36.58-2.88 1.87-7.48 1.87s-7.13-1.27-7.43-1.87a.5.5 0 0 1 .1-.12l.11-.12.21-.15zM16 23.12c-4.71 0-7.25-1.35-7.5-1.91v-1.73A16.3 16.3 0 0 0 16 21a16.3 16.3 0 0 0 7.5-1.52v1.73c-.25.56-2.79 1.91-7.5 1.91" style="fill:#fbd153;fill-rule:nonzero"/><path d="M21.961 14.449a.5.5 0 1 0 0-1 .5.5 0 0 0 0 1M19.859 14.93a.5.5 0 1 0 0-1 .5.5 0 0 0 0 1M21.961 18.02a.5.5 0 1 0 0-1 .5.5 0 0 0 0 1M19.859 18.51a.5.5 0 1 0 0-1 .5.5 0 0 0 0 1M21.961 21.619a.5.5 0 1 0 0-1 .5.5 0 0 0 0 1M19.859 22.109a.499.499 0 1 0 0-1 .5.5 0 0 0 0 1" style="fill:#fbd153;fill-rule:nonzero"/></svg>