<svg xmlns="http://www.w3.org/2000/svg" xml:space="preserve" style="fill-rule:evenodd;clip-rule:evenodd;stroke-linejoin:round;stroke-miterlimit:2" viewBox="0 0 32 32"><path d="M32 16c0-8.831-7.169-16-16-16S0 7.169 0 16s7.169 16 16 16 16-7.169 16-16" style="fill:#fbed53;fill-opacity:.1"/><path d="m16 7.477 7.498 3.041v4.507a9.87 9.87 0 0 1-2.125 5.936A10.67 10.67 0 0 1 16 24.578c-2.146-.635-4.026-1.902-5.372-3.617a9.87 9.87 0 0 1-2.126-5.936v-4.507zm0-1.433a1.8 1.8 0 0 0-.589.11L7.913 9.196a1.47 1.47 0 0 0-.667.528 1.38 1.38 0 0 0-.246.794v4.507a11.2 11.2 0 0 0 2.417 6.8c1.544 1.964 3.704 3.407 6.167 4.12.272.073.56.073.832 0 2.464-.713 4.626-2.158 6.17-4.124A11.2 11.2 0 0 0 25 15.014v-4.496a1.4 1.4 0 0 0-.245-.794 1.5 1.5 0 0 0-.668-.528L16.589 6.11A1.8 1.8 0 0 0 16 6z" style="fill:#fbd153;fill-rule:nonzero"/></svg>