<svg xmlns="http://www.w3.org/2000/svg" xml:space="preserve" style="fill-rule:evenodd;clip-rule:evenodd;stroke-linejoin:round;stroke-miterlimit:2" viewBox="0 0 32 32"><path d="M32 16c0-8.831-7.169-16-16-16S0 7.169 0 16s7.169 16 16 16 16-7.169 16-16" style="fill:#fbed53;fill-opacity:.1"/><path d="m23.842 12.54-4.383-4.382A.53.53 0 0 0 19.093 8h-6.186a.54.54 0 0 0-.377.158L8.155 12.54a.54.54 0 0 0-.155.366v6.185a.6.6 0 0 0 .037.213.6.6 0 0 0 .118.18l4.375 4.358c.1.101.236.157.377.158h6.186a.53.53 0 0 0 .366-.158l4.383-4.358a.53.53 0 0 0 .158-.393v-6.185a.53.53 0 0 0-.158-.366m-1.178 5.964a.6.6 0 0 1-.179.446l-3.541 3.533a.62.62 0 0 1-.441.182h-5.008a.6.6 0 0 1-.446-.182L9.515 18.95a.6.6 0 0 1-.182-.438v-5.016a.62.62 0 0 1 .182-.44l3.534-3.542a.61.61 0 0 1 .446-.179h5.267l3.723 3.721c.115.118.18.276.179.44zm-6.677.163a.66.66 0 0 0-.619.411.66.66 0 0 0 .144.728.666.666 0 0 0 1.14-.474.665.665 0 0 0-.652-.665zm0-6.677a.68.68 0 0 0-.472.194.66.66 0 0 0-.196.471v4.676c0 .177.07.347.196.472a.664.664 0 0 0 .944 0 .67.67 0 0 0 .195-.472v-4.665a.662.662 0 0 0-.654-.66z" style="fill:#fbd153"/></svg>