<svg xmlns="http://www.w3.org/2000/svg" xml:space="preserve" style="fill-rule:evenodd;clip-rule:evenodd;stroke-linejoin:round;stroke-miterlimit:2" viewBox="0 0 32 32"><path d="M32 16c0-8.831-7.169-16-16-16S0 7.169 0 16s7.169 16 16 16 16-7.169 16-16" style="fill:#fbed53;fill-opacity:.1"/><path d="M15.99 6C10.47 6 6 10.48 6 16s4.47 10 9.99 10C21.52 26 26 21.52 26 16S21.52 6 15.99 6m6.93 6h-2.95a15.7 15.7 0 0 0-1.38-3.56A8.03 8.03 0 0 1 22.92 12M16 8.04c.83 1.2 1.48 2.53 1.91 3.96h-3.82c.43-1.43 1.08-2.76 1.91-3.96M8.26 18C8.1 17.36 8 16.69 8 16s.1-1.36.26-2h3.38c-.08.66-.14 1.32-.14 2s.06 1.34.14 2zm.82 2h2.95c.32 1.25.78 2.45 1.38 3.56A8 8 0 0 1 9.08 20m2.95-8H9.08a8 8 0 0 1 4.33-3.56A15.7 15.7 0 0 0 12.03 12M16 23.96c-.83-1.2-1.48-2.53-1.91-3.96h3.82c-.43 1.43-1.08 2.76-1.91 3.96M18.34 18h-4.68c-.09-.66-.16-1.32-.16-2s.07-1.35.16-2h4.68c.09.65.16 1.32.16 2s-.07 1.34-.16 2m.25 5.56c.6-1.11 1.06-2.31 1.38-3.56h2.95a8.03 8.03 0 0 1-4.33 3.56M20.36 18c.08-.66.14-1.32.14-2s-.06-1.34-.14-2h3.38c.16.64.26 1.31.26 2s-.1 1.36-.26 2z" style="fill:#fbd153;fill-rule:nonzero"/></svg>