<svg xmlns="http://www.w3.org/2000/svg" xml:space="preserve" style="fill-rule:evenodd;clip-rule:evenodd;stroke-linejoin:round;stroke-miterlimit:2" viewBox="0 0 32 32"><path d="M32 16c0-8.831-7.169-16-16-16S0 7.169 0 16s7.169 16 16 16 16-7.169 16-16" style="fill:#fbed53;fill-opacity:.1"/><path d="M23.501 14.333h-6.959A4.99 4.99 0 0 0 11.834 11c-2.758 0-5 2.242-5 5s2.242 5 5 5a4.99 4.99 0 0 0 4.708-3.333h.292l1.667 1.666 1.666-1.666 1.667 1.666 3.333-3.366zM11.834 18.5a2.507 2.507 0 0 1-2.5-2.5c0-1.375 1.125-2.5 2.5-2.5s2.5 1.125 2.5 2.5-1.125 2.5-2.5 2.5" style="fill:#fbd153;fill-rule:nonzero"/></svg>