<?xml version="1.0" encoding="UTF-8" standalone="no"?>
<!DOCTYPE svg PUBLIC "-//W3C//DTD SVG 1.1//EN" "http://www.w3.org/Graphics/SVG/1.1/DTD/svg11.dtd">
<svg width="100%" height="100%" viewBox="0 0 32 32" version="1.1" xmlns="http://www.w3.org/2000/svg" xmlns:xlink="http://www.w3.org/1999/xlink" xml:space="preserve" xmlns:serif="http://www.serif.com/" style="fill-rule:evenodd;clip-rule:evenodd;stroke-linejoin:round;stroke-miterlimit:2;">
    <path d="M32,16C32,7.169 24.831,0 16,0C7.169,0 0,7.169 0,16C0,24.831 7.169,32 16,32C24.831,32 32,24.831 32,16Z" style="fill:rgb(251,237,83);fill-opacity:0.1;"/>
    <path d="M23.501,14.333L16.542,14.333C15.859,12.392 14.009,11 11.834,11C9.076,11 6.834,13.242 6.834,16C6.834,18.758 9.076,21 11.834,21C14.009,21 15.859,19.608 16.542,17.667L16.834,17.667L18.501,19.333L20.167,17.667L21.834,19.333L25.167,15.967L23.501,14.333ZM11.834,18.5C10.459,18.5 9.334,17.375 9.334,16C9.334,14.625 10.459,13.5 11.834,13.5C13.209,13.5 14.334,14.625 14.334,16C14.334,17.375 13.209,18.5 11.834,18.5Z" style="fill:rgb(251,209,83);fill-rule:nonzero;"/>
</svg>
