<svg width="24" height="24" viewBox="0 0 24 24" fill="none" xmlns="http://www.w3.org/2000/svg">
<path fill-rule="evenodd" clip-rule="evenodd" d="M19.7465 1.99845C20.9669 1.99847 21.9992 3.12329 21.9984 4.55843L21.9991 19.4384C21.9982 20.8735 20.9676 21.9981 19.7472 21.998L4.25201 21.9979C3.03163 21.9979 1.99918 20.873 1.99805 19.439L1.99926 4.55798C1.99813 3.12399 3.03088 1.99828 4.25127 1.9983L19.7465 1.99845ZM20.999 7.02738L20.9991 4.98703L2.99969 4.9868L2.99988 7.09623L6.44343 9.0848C7.50556 7.17735 9.5438 5.88536 11.8815 5.88527C14.2401 5.88485 16.2933 7.19936 17.3477 9.13544L20.999 7.02738ZM20.9982 17.4895L20.9997 8.1816L17.7566 10.054C17.9802 10.6975 18.1037 11.3874 18.1021 12.1074C18.1033 13.2763 17.7794 14.3713 17.2176 15.3062L20.9982 17.4895ZM2.99921 18.5742L2.99894 19.4386C2.99885 20.2802 3.53504 20.9984 4.25092 20.9985L19.746 20.9987C20.4619 20.9988 20.9983 20.2805 20.9983 19.4388L20.9989 18.6438L16.6324 16.1228C16.4174 16.3772 16.1819 16.6142 15.9273 16.8321C15.9931 17.0329 16.05 17.2689 16.0571 17.4872C16.0678 17.8075 16.0279 18.0862 15.9551 18.3215L15.7861 18.7196L15.5102 19.0881L15.2632 19.2964L14.9673 19.4563L14.6389 19.551L14.3029 19.5728L13.8748 19.4901L13.6368 19.3617L13.6311 19.3654L13.2526 19.5471L12.8061 19.6111L12.3743 19.5404L12.0243 19.3689C11.9858 19.3434 11.9411 19.307 11.8953 19.2643C11.8313 19.3226 11.7699 19.3719 11.7128 19.4056L11.3448 19.5597L10.9437 19.6111L10.5667 19.5572L10.2555 19.4254L10.1623 19.3464L9.86394 19.5021L9.41924 19.5738L9.09422 19.5461L8.73635 19.4388L8.38238 19.2282L8.09023 18.928C7.88421 18.6489 7.69849 18.2129 7.70574 17.5163C7.7083 17.2874 7.76608 17.0398 7.83223 16.8295C7.59541 16.6252 7.37271 16.4042 7.16945 16.1665L2.99921 18.5742ZM2.99862 8.25171L2.99848 17.42L6.57438 15.3555C5.994 14.4097 5.66045 13.2966 5.66025 12.1067C5.66096 11.3667 5.79013 10.6572 6.02604 9.99982L2.99862 8.25171ZM16.3849 9.69131C15.5224 8.08764 13.828 6.99667 11.8812 6.9966C9.95528 6.99619 8.27659 8.06436 7.40611 9.64035C7.24459 9.93249 7.10948 10.2431 7.00803 10.566C6.85325 11.0528 6.7714 11.5698 6.77205 12.1062C6.77182 13.0941 7.0513 14.0175 7.53718 14.7996C7.71586 15.0862 7.92302 15.3535 8.15208 15.5992C8.44205 15.9093 8.77142 16.1824 9.12918 16.4132C9.13553 16.8131 8.82103 17.005 8.81589 17.5269C8.8092 18.2473 9.06592 18.4632 9.41724 18.4632C9.805 18.4623 9.73555 17.8294 10.1263 17.8199C10.4799 17.81 10.6063 18.5004 10.9442 18.5C11.4094 18.5005 11.3593 17.8739 11.8825 17.8651C12.3786 17.8459 12.4286 18.4952 12.82 18.5005C13.2355 18.5065 13.255 17.8128 13.6366 17.8195C14.0051 17.8263 13.9543 18.4476 14.3461 18.4628C14.6976 18.4768 14.9679 18.1258 14.9468 17.5266C14.9284 17.0052 14.6277 16.8137 14.6339 16.4127C15.0099 16.1718 15.3508 15.884 15.6504 15.5565C15.8773 15.309 16.0805 15.0387 16.2548 14.7505C16.7232 13.9787 16.9931 13.0734 16.9923 12.1067C16.9926 11.5902 16.9161 11.0916 16.772 10.6225C16.6739 10.297 16.544 9.98508 16.3849 9.69131ZM11.8817 14.812C12.1482 14.8115 12.713 15.3597 12.705 15.7346C12.6969 16.1096 12.5248 16.2414 12.3455 16.242C12.1682 16.2415 12.056 15.8734 11.8817 15.8735C11.7074 15.8735 11.6651 16.235 11.4533 16.2341C11.2395 16.2344 11.0649 15.9821 11.0652 15.7401C11.0658 15.3478 11.5727 14.8122 11.8817 14.812ZM14.9938 11.9805C15.2522 11.9843 15.7466 12.2231 15.7419 13.0339C15.7166 14.2757 14.7873 14.5511 14.1427 14.5692C13.4779 14.5889 12.3402 14.0093 12.3865 12.8406C12.4241 11.9219 14.0233 11.9649 14.9938 11.9805ZM8.7705 11.9808C9.74101 11.9643 11.3413 11.9223 11.3774 12.8404C11.4235 14.0091 10.2865 14.5883 9.62303 14.5692C8.97625 14.5516 8.04773 14.2746 8.02354 13.034C8.01802 12.2238 8.51379 11.9845 8.7705 11.9808Z" fill="white"/>
</svg>
