<svg xmlns="http://www.w3.org/2000/svg" xml:space="preserve" style="fill-rule:evenodd;clip-rule:evenodd;stroke-linejoin:round;stroke-miterlimit:2" viewBox="0 0 32 32"><path d="M32 16c0-8.831-7.169-16-16-16S0 7.169 0 16s7.169 16 16 16 16-7.169 16-16" style="fill:#fbed53;fill-opacity:.1"/><path d="M23.34 8.35H8.66A1.663 1.663 0 0 0 7 10.01v12a1.66 1.66 0 0 0 1.66 1.65h14.68A1.66 1.66 0 0 0 25 22V10a1.66 1.66 0 0 0-1.66-1.65m0 14H8.66a.36.36 0 0 1-.36-.36v-9.74h15.4V22a.36.36 0 0 1-.36.36z" style="fill:#fbd153;fill-rule:nonzero"/><path d="M21.17 19.061h-4.7a.15.15 0 0 0-.15.15v1a.15.15 0 0 0 .15.149h4.7a.15.15 0 0 0 .15-.149v-1a.15.15 0 0 0-.15-.15M11.99 14.02a.657.657 0 0 0-.92 0 .647.647 0 0 0 0 .91l2.16 2.16-2.16 2.16a.66.66 0 0 0 0 .92.68.68 0 0 0 .46.19.7.7 0 0 0 .46-.19l2.61-2.62a.65.65 0 0 0 .195-.46.65.65 0 0 0-.195-.46z" style="fill:#fbd153;fill-rule:nonzero"/></svg>