<svg xmlns="http://www.w3.org/2000/svg" xml:space="preserve" style="fill-rule:evenodd;clip-rule:evenodd;stroke-linejoin:round;stroke-miterlimit:2" viewBox="0 0 32 32"><path d="M32 16c0-8.831-7.169-16-16-16S0 7.169 0 16s7.169 16 16 16 16-7.169 16-16" style="fill:#fbed53;fill-opacity:.1"/><path d="M20.11 13.109v-3.08a4 4 0 1 0-8 0v3.08a7.11 7.11 0 0 0-2.795 7.971 7.11 7.11 0 0 0 6.795 5.017 7.11 7.11 0 0 0 4-12.988m-6.5-3.08a2.501 2.501 0 0 1 5 0v2.31a7 7 0 0 0-5 0zm2.5 14.6a5.61 5.61 0 1 1 5.61-5.6 5.61 5.61 0 0 1-5.61 5.57z" style="fill:#fbd153;fill-rule:nonzero"/><path d="M16.109 16.029a2.002 2.002 0 0 0-1.75 2.949c.219.407.573.726 1 .901v1.4a.75.75 0 0 0 1.5 0v-1.4a1.998 1.998 0 0 0-.75-3.85" style="fill:#fbd153;fill-rule:nonzero"/></svg>