<?xml version="1.0" encoding="UTF-8" standalone="no"?>
<!DOCTYPE svg PUBLIC "-//W3C//DTD SVG 1.1//EN" "http://www.w3.org/Graphics/SVG/1.1/DTD/svg11.dtd">
<svg width="100%" height="100%" viewBox="0 0 32 32" version="1.1" xmlns="http://www.w3.org/2000/svg" xmlns:xlink="http://www.w3.org/1999/xlink" xml:space="preserve" xmlns:serif="http://www.serif.com/" style="fill-rule:evenodd;clip-rule:evenodd;stroke-linejoin:round;stroke-miterlimit:2;">
    <path d="M32,16C32,7.169 24.831,0 16,0C7.169,0 0,7.169 0,16C0,24.831 7.169,32 16,32C24.831,32 32,24.831 32,16Z" style="fill:rgb(251,237,83);fill-opacity:0.1;"/>
    <path d="M12.063,23L14.826,8.781L16.232,8.781L13.459,23L12.063,23ZM16.037,23L18.811,8.781L20.207,8.781L17.434,23L16.037,23ZM21.398,14.201L11.242,14.201L11.242,12.844L21.398,12.844L21.398,14.201ZM20.666,18.996L10.5,18.996L10.5,17.648L20.666,17.648L20.666,18.996Z" style="fill:rgb(251,209,83);fill-rule:nonzero;"/>
</svg>
