<?xml version="1.0" encoding="UTF-8" standalone="no"?>
<!DOCTYPE svg PUBLIC "-//W3C//DTD SVG 1.1//EN" "http://www.w3.org/Graphics/SVG/1.1/DTD/svg11.dtd">
<svg width="100%" height="100%" viewBox="0 0 32 32" version="1.1" xmlns="http://www.w3.org/2000/svg" xmlns:xlink="http://www.w3.org/1999/xlink" xml:space="preserve" xmlns:serif="http://www.serif.com/" style="fill-rule:evenodd;clip-rule:evenodd;stroke-linejoin:round;stroke-miterlimit:2;">
    <path d="M32,16C32,7.169 24.831,0 16,0C7.169,0 0,7.169 0,16C0,24.831 7.169,32 16,32C24.831,32 32,24.831 32,16Z" style="fill:rgb(251,237,83);fill-opacity:0.1;"/>
    <path d="M16,6C10.48,6 6,10.48 6,16C6,21.52 10.48,26 16,26C21.52,26 26,21.52 26,16C26,10.48 21.52,6 16,6ZM16,24C11.59,24 8,20.41 8,16C8,11.59 11.59,8 16,8C20.41,8 24,11.59 24,16C24,20.41 20.41,24 16,24ZM13.5,20.5L20.5,16L13.5,11.5L13.5,20.5Z" style="fill:rgb(251,209,83);fill-rule:nonzero;"/>
</svg>
