<?xml version="1.0" encoding="UTF-8" standalone="no"?>
<!DOCTYPE svg PUBLIC "-//W3C//DTD SVG 1.1//EN" "http://www.w3.org/Graphics/SVG/1.1/DTD/svg11.dtd">
<svg width="100%" height="100%" viewBox="0 0 32 32" version="1.1" xmlns="http://www.w3.org/2000/svg" xmlns:xlink="http://www.w3.org/1999/xlink" xml:space="preserve" xmlns:serif="http://www.serif.com/" style="fill-rule:evenodd;clip-rule:evenodd;stroke-linejoin:round;stroke-miterlimit:2;">
    <path d="M32,16C32,7.169 24.831,0 16,0C7.169,0 0,7.169 0,16C0,24.831 7.169,32 16,32C24.831,32 32,24.831 32,16Z" style="fill:rgb(251,237,83);fill-opacity:0.1;"/>
    <path d="M16,9.9C17.16,9.9 18.1,10.84 18.1,12C18.1,13.16 17.16,14.1 16,14.1C14.84,14.1 13.9,13.16 13.9,12C13.9,10.84 14.84,9.9 16,9.9ZM16,18.9C18.97,18.9 22.1,20.36 22.1,21L22.1,22.1L9.9,22.1L9.9,21C9.9,20.36 13.03,18.9 16,18.9ZM16,8C13.79,8 12,9.79 12,12C12,14.21 13.79,16 16,16C18.21,16 20,14.21 20,12C20,9.79 18.21,8 16,8ZM16,17C13.33,17 8,18.34 8,21L8,24L24,24L24,21C24,18.34 18.67,17 16,17Z" style="fill:rgb(251,209,83);fill-rule:nonzero;"/>
</svg>
