<svg xmlns="http://www.w3.org/2000/svg" xml:space="preserve" style="fill-rule:evenodd;clip-rule:evenodd;stroke-linejoin:round;stroke-miterlimit:2" viewBox="0 0 32 32"><path d="M32 16c0-8.831-7.169-16-16-16S0 7.169 0 16s7.169 16 16 16 16-7.169 16-16" style="fill:#fbed53;fill-opacity:.1"/><path d="M16 9.9a2.1 2.1 0 1 1 0 4.2 2.1 2.1 0 0 1 0-4.2m0 9c2.97 0 6.1 1.46 6.1 2.1v1.1H9.9V21c0-.64 3.13-2.1 6.1-2.1M16 8c-2.21 0-4 1.79-4 4s1.79 4 4 4 4-1.79 4-4-1.79-4-4-4m0 9c-2.67 0-8 1.34-8 4v3h16v-3c0-2.66-5.33-4-8-4" style="fill:#fbd153;fill-rule:nonzero"/></svg>